<?xml version="1.0" encoding="UTF-8"?>
<svg id="Layer_1" data-name="Layer 1" xmlns="http://www.w3.org/2000/svg" version="1.1" viewBox="0 0 500 500">
  <defs>
    <style>
      .cls-1 {
        fill: #000;
        stroke-width: 0px;
      }
    </style>
  </defs>
  <path className="cls-1" d="M190.4,125.15h11.86v53.23h-11.86v-53.23ZM91.3,387.65h-12.05V108.79h12.05v278.86ZM202.12,454.87h-11.86v-39.35h11.86v39.35ZM149.44,375.63c-11.02,0-19.95-8.93-19.95-19.95v-74.12h21.04v84.02h39.43v-84.02h12.57v84.02h30.1v-84.02h64.22v94.07h-147.41ZM342.77,452.03h-12.22V35.98h12.22v416.05ZM398.35,360.63c0,8.28-6.7,15-14.99,15h-6.29v-94.07h12.77c4.71,0,8.51,3.81,8.51,8.51v70.56ZM446.8,265.94v114.26h-12.22v-114.26h12.22ZM446.8,222.11h-12.22v-98.26h12.22v98.26ZM481.96,208.04v-53.96c0-38.8-31.45-70.24-70.23-70.24h-21.17v45.96c4.65,2.55,7.79,7.49,7.79,13.15v83.37c0,8.28-6.7,15-14.99,15h-6.29V34.47c0-12.84,10.42-23.26,23.26-23.26h6.94V3.99h-225.82c-17.08,0-30.92,13.85-30.92,30.92v36.38h39.24v-34.55h12.32v34.36h30.53v-17.19c0-5.15,4.19-9.34,9.34-9.34h54.89v196.74h-167.32l-.54-117.47h21.53v52.84c0,9.49,5.72,17.61,13.9,21.14,1.66.71,1.66,3.02,0,3.73-8.17,3.53-13.9,11.65-13.9,21.12v9.15l82.15-1.31.27-5.23,26.32.24c16.51.16,29.96-13.17,29.96-29.68v-11.21h-56.28v-60.79h50.42v-40.02H18.04v5.45h5.96c12.62,0,22.83,10.21,22.83,22.83v115.76c0,10.5-8.52,19.02-19.02,19.02h-9.77v8.13h10.29c10.51,0,19.04,8.52,19.04,19.04v114.77c0,11.13-9.01,20.14-20.14,20.14h-9.19v8.68h130.12v49.41c0,12.36-10.02,22.39-22.39,22.39h-6.88v6.56h112.13v-81.17h65.83v81.17h110.42v-7.27h-7.34c-12.62,0-22.86-10.23-22.86-22.86v-48.22h34.66c38.78,0,70.23-31.45,70.23-70.24v-67.45c0-19.86-16.09-35.97-35.95-35.97,19.86,0,35.95-16.09,35.95-35.95Z"/>
</svg>